<?xml version="1.0" encoding="utf-8"?>
<!-- Generator: Adobe Illustrator 16.0.0, SVG Export Plug-In . SVG Version: 6.00 Build 0)  -->
<!DOCTYPE svg PUBLIC "-//W3C//DTD SVG 1.1//EN" "http://www.w3.org/Graphics/SVG/1.1/DTD/svg11.dtd">
<svg version="1.1" id="Layer_1" xmlns="http://www.w3.org/2000/svg" xmlns:xlink="http://www.w3.org/1999/xlink" x="0px" y="0px"
	 width="157.7px" height="158.3px" viewBox="0 0 157.7 158.3" enable-background="new 0 0 157.7 158.3" xml:space="preserve">
<rect x="3499" y="1743.3" fill-rule="evenodd" clip-rule="evenodd" fill="#FFFFFF" width="1353" height="1385"/>
<rect x="2830" y="3357.3" fill-rule="evenodd" clip-rule="evenodd" fill="#414142" width="26" height="27"/>
<rect x="2865" y="3357.3" fill-rule="evenodd" clip-rule="evenodd" fill="#838B8F" width="26" height="27"/>
<rect x="2900" y="3357.3" fill-rule="evenodd" clip-rule="evenodd" fill="#C9CAD4" width="26" height="27"/>
<rect x="2935" y="3357.3" fill-rule="evenodd" clip-rule="evenodd" fill="#B7CFDC" width="26" height="27"/>
<rect x="3016" y="3357.3" fill-rule="evenodd" clip-rule="evenodd" fill="#DEEBF4" width="26" height="27"/>
<rect x="2974" y="3357.3" fill-rule="evenodd" clip-rule="evenodd" fill="#C9DEE5" width="26" height="27"/>
<rect x="316" y="1756.3" fill-rule="evenodd" clip-rule="evenodd" fill="#C9CAD4" width="1389" height="1385"/>
<rect x="1926" y="1743.3" fill-rule="evenodd" clip-rule="evenodd" fill="#231F20" width="1393" height="1385"/>
<g>
	<g>
		<path fill="#C6484D" d="M-475-1341.4v-1.7h-1.7v-1.2h1.7v-1.7h1.2v1.7h1.7v1.2h-1.7v1.7H-475z"/>
	</g>
</g>
<path fill-rule="evenodd" clip-rule="evenodd" fill="none" stroke="#C6484D" stroke-miterlimit="10" d="M-474.5-1339.9
	c-2.1,0-3.8-1.7-3.8-3.8c0-2.1,1.7-3.8,3.8-3.8c2.1,0,3.8,1.7,3.8,3.8C-470.7-1341.6-472.4-1339.9-474.5-1339.9z"/>
<path fill="#C6484D" d="M-473.2-1351.2c-0.3-1-0.8-1.8-1.5-2.5c-0.6-0.7-1.4-1.3-2.3-1.5c-0.7-0.2-1.7-0.4-2.9-0.4h-6.1v16h6.3
	c0.9,0,1.7-0.2,2.4-0.3c-0.8-0.6-1.4-1.7-1.6-2.7c-0.3,0-0.7,0-1.2,0h-1.8v-10h0.9c1.3,0,2.1,0,2.6,0.1c0.6,0.1,1.1,0.3,1.4,0.7
	c0.4,0.4,0.7,0.8,0.9,1.5c0.2,0.6,0.3,1.3,0.3,2.3c0.4-0.1,0.8-0.2,1.3-0.2c0.7,0,1.4,0.2,2,0.4
	C-472.7-1349.2-472.8-1350.3-473.2-1351.2z"/>
<g>
	<g>
		<path fill="#C9CAD4" d="M101.9,133.7v-17.8h-18v-12.3h18V85.7h12v17.8h18v12.3h-18v17.8H101.9z"/>
	</g>
	<path fill-rule="evenodd" clip-rule="evenodd" fill="none" stroke="#C9CAD4" stroke-width="10" stroke-miterlimit="10" d="
		M107.9,145.3c-19.6,0-35.6-16-35.6-35.6s16-35.6,35.6-35.6c19.6,0,35.6,16,35.6,35.6S127.5,145.3,107.9,145.3z"/>
	<g>
		<path fill="#C9CAD4" d="M60.4,119.3H41v-86h11.6c10.6,0,17.8,0.5,21.4,1.3c4.9,1.1,8.9,3.1,12.1,6.1c3.2,3,5.6,7.2,7.4,12.5
			c1.1,3.3,1.8,7.4,2.2,12.5c3.9-1.1,8-1.7,12.2-1.7c5.2,0,10.1,0.9,14.7,2.5c-0.6-7.4-1.9-14-3.8-19.6c-2.8-8.3-6.9-15.2-12.3-20.9
			c-5.4-5.7-11.9-9.3-19.5-11.6c-5.6-1.6-13.8-2.1-24.6-2.1H15v129h48.9c3.9,0,7.5-0.2,10.8-0.5c-5.5-5.9-9.5-13.3-11.3-21.5
			C62.4,119.3,61.4,119.3,60.4,119.3z"/>
	</g>
</g>
<g>
	<g>
		<path fill="#B7CFDC" d="M-100.9,133.7v-17.8h-18v-12.3h18V85.7h12v17.8h18v12.3h-18v17.8H-100.9z"/>
	</g>
	<path fill-rule="evenodd" clip-rule="evenodd" fill="none" stroke="#B7CFDC" stroke-width="10" stroke-miterlimit="10" d="
		M-94.8,145.3c-19.6,0-35.6-16-35.6-35.6s16-35.6,35.6-35.6c19.6,0,35.6,16,35.6,35.6S-75.2,145.3-94.8,145.3z"/>
	<g>
		<path fill="#B7CFDC" d="M-142.4,119.3H-162v-86h11.9c10.6,0,17.8,0.5,21.4,1.3c4.9,1.1,8.9,3.1,12.1,6.1c3.2,3,5.6,7.2,7.4,12.5
			c1.1,3.3,1.8,7.4,2.2,12.5c3.9-1.1,8-1.7,12.2-1.7c5.2,0,10.1,0.9,14.7,2.5c-0.6-7.4-1.9-14-3.8-19.6c-2.8-8.3-6.9-15.2-12.3-20.9
			c-5.4-5.7-11.9-9.3-19.5-11.6c-5.6-1.6-13.8-2.1-24.6-2.1H-188v129h49.1c3.9,0,7.5-0.2,10.8-0.5c-5.5-5.9-9.5-13.3-11.3-21.5
			C-140.3,119.3-141.3,119.3-142.4,119.3z"/>
	</g>
</g>
<g>
	<g>
		<path fill="#C6484D" d="M-300.1,133.7v-17.8h-18v-12.3h18V85.7h12v17.8h18v12.3h-18v17.8H-300.1z"/>
	</g>
	<path fill-rule="evenodd" clip-rule="evenodd" fill="none" stroke="#C6484D" stroke-width="10" stroke-miterlimit="10" d="
		M-294.1,74.1c-19.6,0-35.6,16-35.6,35.6s16,35.6,35.6,35.6c19.6,0,35.6-16,35.6-35.6S-274.5,74.1-294.1,74.1z"/>
	<g>
		<path fill="#C6484D" d="M-341.6,119.3H-361v-86h11.6c10.6,0,17.8,0.5,21.4,1.3c4.9,1.1,8.9,3.1,12.1,6.1c3.2,3,5.6,7.2,7.4,12.5
			c1.1,3.3,1.8,7.4,2.2,12.5c3.9-1.1,8-1.7,12.2-1.7c5.2,0,10.1,0.9,14.7,2.5c-0.6-7.4-1.9-14-3.8-19.6c-2.8-8.3-6.9-15.2-12.3-20.9
			c-5.4-5.7-11.9-9.3-19.5-11.6c-5.6-1.6-13.8-2.1-24.6-2.1H-387v129h48.9c3.9,0,7.5-0.2,10.8-0.5c-5.5-5.9-9.5-13.3-11.3-21.5
			C-339.6,119.3-340.6,119.3-341.6,119.3z"/>
	</g>
</g>
<g>
	<path fill="#B7CFDC" d="M4283.4,2648.8v-59.7h-60.1V2548h60.1v-59.7h40.1v59.7h60.3v41.2h-60.3v59.7H4283.4z"/>
</g>
<path fill-rule="evenodd" clip-rule="evenodd" fill="none" stroke="#B7CFDC" stroke-width="35" stroke-miterlimit="10" d="
	M4303.5,2700c-72.5,0-131.4-58.9-131.4-131.4c0-72.5,59-131.4,131.4-131.4c72.5,0,131.4,58.9,131.4,131.4
	C4434.9,2641,4376,2700,4303.5,2700z"/>
<g>
	<path fill="#B7CFDC" d="M4146,2606.6c-11.2,0.9-24.7,1.7-40.5,1.7H4024v-357h49.3c44.2,0,73.9,1.9,89.1,5.3
		c20.3,4.4,37,12.9,50.2,25.4c13.2,12.5,23.5,29.9,30.8,52.1c6.4,19.5,10,46.4,10.8,80.6c14-4.1,28.9-6.3,44.3-6.3
		c24.3,0,47.4,5.5,68,15.4c-0.8-45.6-6.6-84.4-17.5-116.3c-11.7-34.3-28.8-63.4-51.3-87.1c-22.5-23.7-49.5-38.9-81-48.2
		c-23.5-6.8-57.6-9-102.3-9H3916v537h204.2c32.6,0,59.9-3.4,81.8-8.4C4175,2671,4155,2640.6,4146,2606.6z"/>
</g>
<g>
	<path fill="#C6484D" d="M1117.9,2648.8v-59.7h-60.1V2548h60.1v-59.7h40.1v59.7h60.3v41.2H1158v59.7H1117.9z"/>
</g>
<path fill-rule="evenodd" clip-rule="evenodd" fill="none" stroke="#C6484D" stroke-width="35" stroke-miterlimit="10" d="
	M1138,2700c-72.5,0-131.4-58.9-131.4-131.4c0-72.5,59-131.4,131.4-131.4c72.5,0,131.4,58.9,131.4,131.4
	C1269.4,2641,1210.5,2700,1138,2700z"/>
<g>
	<path fill="#C6484D" d="M980.5,2606.6c-11.2,0.9-24.7,1.7-40.5,1.7H859v-357h48.8c44.2,0,73.9,1.9,89.1,5.3
		c20.3,4.4,37,12.9,50.2,25.4c13.2,12.5,23.5,29.9,30.8,52.1c6.4,19.5,10,46.4,10.8,80.6c14-4.1,28.9-6.3,44.3-6.3
		c24.3,0,47.4,5.5,68,15.4c-0.8-45.6-6.6-84.4-17.5-116.3c-11.7-34.3-28.8-63.4-51.3-87.1c-22.5-23.7-49.5-38.9-81-48.2
		c-23.5-6.8-57.6-9-102.3-9H751v537h203.7c32.6,0,59.9-3.4,81.8-8.4C1009.5,2671,989.5,2640.6,980.5,2606.6z"/>
</g>
<g>
	<path fill="#C9CAD4" d="M2729.9,2648.8v-59.7h-60.1v-41.2h60.1v-59.7h40.1v59.7h60.3v41.2H2770v59.7H2729.9z"/>
</g>
<path fill-rule="evenodd" clip-rule="evenodd" fill="none" stroke="#C9CAD4" stroke-width="35" stroke-miterlimit="10" d="
	M2750,2699.9c-72.5,0-131.4-58.9-131.4-131.4s59-131.4,131.4-131.4c72.5,0,131.4,58.9,131.4,131.4S2822.5,2699.9,2750,2699.9z"/>
<g>
	<path fill="#C9CAD4" d="M2592.5,2606.6c-11.2,0.9-24.7,1.8-40.5,1.8H2471v-357h48.8c44.2,0,73.9,1.8,89.1,5.3
		c20.3,4.4,37,12.9,50.2,25.4c13.2,12.5,23.5,29.9,30.8,52.1c6.4,19.5,10,46.4,10.8,80.6c14-4.1,28.9-6.3,44.3-6.3
		c24.3,0,47.4,5.5,68,15.4c-0.8-45.6-6.6-84.4-17.5-116.3c-11.7-34.3-28.8-63.4-51.3-87.1c-22.5-23.7-49.5-38.9-81-48.1
		c-23.5-6.8-57.6-8.9-102.3-8.9H2363v537h203.7c32.6,0,59.9-3.4,81.8-8.4C2621.5,2671,2601.5,2640.5,2592.5,2606.6z"/>
</g>
<g>
	<defs>
		<rect id="SVGID_1_" x="-543" y="3573.3" width="1614" height="659"/>
	</defs>
	<clipPath id="SVGID_2_">
		<use xlink:href="#SVGID_1_"  overflow="visible"/>
	</clipPath>
	<g clip-path="url(#SVGID_2_)">
		<polygon fill-rule="evenodd" clip-rule="evenodd" fill="#838B8F" points="1006.6,5106 -1143.7,4413.8 -542.5,3624.8 
			1373.7,4241.7 		"/>
		<polygon fill-rule="evenodd" clip-rule="evenodd" fill="#414142" points="1858.8,4554.7 -214,4821.5 -542.1,3944.3 1530.7,3677.5 
					"/>
		<polygon fill-rule="evenodd" clip-rule="evenodd" fill="#838B8F" points="1666,4282.4 -195.9,4904.8 -490.7,4146.4 1071.5,3624.8 
					"/>
		<polygon fill-rule="evenodd" clip-rule="evenodd" fill="#C9CAD4" points="868.1,4664.2 -970.6,4497 -797.6,3944.6 1022.4,3978.3 
					"/>
		<polygon fill-rule="evenodd" clip-rule="evenodd" fill="#C6484D" points="1600.2,4242.8 40.3,5035.8 -471.2,4370.7 1071.5,3717 		
			"/>
		<polygon fill-rule="evenodd" clip-rule="evenodd" fill="#C6484D" points="-10.8,4242.8 -1570.8,5035.8 -2082.2,4370.7 
			-542.5,3717 		"/>
		<polygon fill-rule="evenodd" clip-rule="evenodd" fill="#414142" points="-539.8,4814.9 1348.6,4405.9 1133.5,3944.6 
			-751.5,4268.7 		"/>
		<polygon fill-rule="evenodd" clip-rule="evenodd" fill="#838B8F" points="982.8,4814.3 -854.6,4565 -575.6,4026.2 1159.8,4248.4 
					"/>
		<polygon fill-rule="evenodd" clip-rule="evenodd" fill="#414142" points="140.4,4875.4 -861.3,4405.9 -542.5,3955.3 481,4297.3 		
			"/>
	</g>
</g>
<g>
	<defs>
		<rect id="SVGID_3_" x="1257" y="3573.3" width="1614" height="659"/>
	</defs>
	<clipPath id="SVGID_4_">
		<use xlink:href="#SVGID_3_"  overflow="visible"/>
	</clipPath>
	<g clip-path="url(#SVGID_4_)">
		<polygon fill-rule="evenodd" clip-rule="evenodd" fill="#838B8F" points="2806.6,5106 656.3,4413.8 1257.5,3624.8 3173.7,4241.7 
					"/>
		<polygon fill-rule="evenodd" clip-rule="evenodd" fill="#C9DEE5" points="3658.8,4554.7 1586,4821.5 1257.9,3944.3 3330.7,3677.5 
					"/>
		<polygon fill-rule="evenodd" clip-rule="evenodd" fill="#838B8F" points="3466,4282.4 1604.1,4904.8 1309.3,4146.4 2871.5,3624.8 
					"/>
		<polygon fill-rule="evenodd" clip-rule="evenodd" fill="#B7CFDC" points="2668.1,4664.2 829.4,4497 1002.4,3944.6 2822.4,3978.3 
					"/>
		<polygon fill-rule="evenodd" clip-rule="evenodd" fill="#C9CAD4" points="3400.2,4242.8 1840.3,5035.8 1328.8,4370.7 2871.5,3717 
					"/>
		<polygon fill-rule="evenodd" clip-rule="evenodd" fill="#C9CAD4" points="1789.2,4242.8 229.3,5035.8 -282.2,4370.7 1257.5,3717 
					"/>
		<polygon fill-rule="evenodd" clip-rule="evenodd" fill="#838B8F" points="2827,4814.9 938.7,4405.9 1257.5,3955.3 3038.7,4268.7 
					"/>
		<polygon fill-rule="evenodd" clip-rule="evenodd" fill="#838B8F" points="1260.2,4814.9 3148.6,4405.9 2933.5,3944.6 
			1048.5,4268.7 		"/>
	</g>
</g>
<g>
	<defs>
		<rect id="SVGID_5_" x="3081" y="3573.3" width="1614" height="659"/>
	</defs>
	<clipPath id="SVGID_6_">
		<use xlink:href="#SVGID_5_"  overflow="visible"/>
	</clipPath>
	<g clip-path="url(#SVGID_6_)">
		<polygon fill-rule="evenodd" clip-rule="evenodd" fill="#DEEBF4" points="4630.6,5106 2480.3,4413.8 3081.5,3624.8 4997.7,4241.7 
					"/>
		<polygon fill-rule="evenodd" clip-rule="evenodd" fill="#C9DEE5" points="5482.8,4554.7 3410,4821.5 3081.9,3944.3 5154.7,3677.5 
					"/>
		<polygon fill-rule="evenodd" clip-rule="evenodd" fill="#DEEBF4" points="5290,4282.4 3428.1,4904.8 3133.3,4146.4 4695.5,3624.8 
					"/>
		<polygon fill-rule="evenodd" clip-rule="evenodd" fill="#838B8F" points="4492.1,4664.2 2653.4,4497 2826.4,3944.6 4646.4,3978.3 
					"/>
		<polygon fill-rule="evenodd" clip-rule="evenodd" fill="#C9CAD4" points="5224.2,4242.8 3664.3,5035.8 3152.8,4370.7 4695.5,3717 
					"/>
		<polygon fill-rule="evenodd" clip-rule="evenodd" fill="#C9CAD4" points="3613.2,4242.8 2053.3,5035.8 1541.8,4370.7 3081.5,3717 
					"/>
		<polygon fill-rule="evenodd" clip-rule="evenodd" fill="#B7CFDC" points="3084.2,4814.9 4972.6,4405.9 4757.5,3944.6 3813,4317.3 
					"/>
		<polygon fill-rule="evenodd" clip-rule="evenodd" fill="#838B8F" points="4710.1,4776.2 2871.4,4609 3129,4189.3 4489,4017.3 		
			"/>
		<polygon fill-rule="evenodd" clip-rule="evenodd" fill="#B7CFDC" points="4651,4814.9 2762.7,4405.9 3081.5,3955.3 4862.7,4268.7 
					"/>
	</g>
</g>
</svg>
