<?xml version="1.0" encoding="utf-8"?>
<!-- Generator: Adobe Illustrator 16.0.0, SVG Export Plug-In . SVG Version: 6.00 Build 0)  -->
<!DOCTYPE svg PUBLIC "-//W3C//DTD SVG 1.1//EN" "http://www.w3.org/Graphics/SVG/1.1/DTD/svg11.dtd">
<svg version="1.1" id="Layer_1" xmlns="http://www.w3.org/2000/svg" xmlns:xlink="http://www.w3.org/1999/xlink" x="0px" y="0px"
	 width="389.8px" height="75.5px" viewBox="0 0 389.8 75.5" enable-background="new 0 0 389.8 75.5" xml:space="preserve">
<g>
	<path fill="#FFFFFF" d="M96.7,28.8c0-1.6,1.3-3,3-3l12.9,0c2,0,3.9,1.2,4.6,3.2c1,2.6-0.3,5.4-2.8,6.4l-10,3.7
		c-3.6,1.2-5.5,5.2-4.3,8.8c0.7,1.9,2,3.3,3.7,4.1l18.7,8.5V54l-16.3-7.2c-0.3-0.1-0.5-0.4-0.6-0.7c-0.2-0.6,0.1-1.3,0.7-1.5
		l10.2-3.6c5.6-2.2,8.4-8.5,6.3-14.1c-1.7-4.3-5.8-7-10.2-7H99.7c-4.9,0-8.9,4-8.9,8.9v30.7h5.9V28.8z"/>
	<rect x="129.5" y="19.9" fill="#FFFFFF" width="5.9" height="39.6"/>
	<path fill="#FFFFFF" d="M47.4,19.9l-10.6,33c-0.1,0.4-0.5,0.7-0.9,0.7c-0.4,0-0.8-0.3-0.9-0.7l-10.6-33H18l11.2,34.8
		c0.9,2.9,3.7,4.8,6.6,4.8c2.9,0,5.6-1.9,6.6-4.8l11.2-34.8H47.4z"/>
	<path fill="#FFFFFF" d="M171.2,59.6l10.6-33c0.1-0.4,0.5-0.7,0.9-0.7c0.4,0,0.8,0.3,0.9,0.7l10.6,33h6.3l-11.2-34.8
		c-0.9-2.9-3.6-4.8-6.6-4.8c-2.9,0-5.6,1.9-6.6,4.8l-11.2,34.8H171.2z"/>
	<path fill="#FFFFFF" d="M65.8,25.9h18.8v-5.9H65.8c-5.5,0-9.9,4.4-9.9,9.9v19.8c0,5.5,4.4,9.9,9.9,9.9h18.8v-5.9H65.8
		c-2.2,0-4-1.8-4-4v-7h18.8v-5.8H61.9v-7C61.9,27.6,63.7,25.9,65.8,25.9"/>
	<polygon fill="#FFFFFF" points="169.3,19.9 140.4,19.9 140.4,25.9 151.9,25.9 151.9,59.6 157.8,59.6 157.8,25.9 169.3,25.9 	"/>
	<path fill="#FFFFFF" d="M222.7,59.6c6.3,0,11.4-5.1,11.4-11.4s-5.1-11.4-11.4-11.4h-9.9c-3,0-5.5-2.4-5.5-5.4c0-3,2.4-5.5,5.5-5.5
		h19.3v-5.9h-19.3c-6.3,0-11.4,5.1-11.4,11.4s5.1,11.4,11.4,11.4h9.9c3,0,5.5,2.4,5.5,5.5c0,3-2.4,5.5-5.5,5.5h-19.3v5.9H222.7z"/>
	<path fill="#FFFFFF" d="M235.4,19.9h-0.5v-2.4h-0.9V17h2.2v0.5h-0.9V19.9z M238.2,19.2l0.2-0.5L239,17h0.6v2.9h-0.5v-1.4l0-0.5
		l-0.2,0.4l-0.6,1.5H238l-0.6-1.5l-0.2-0.4l0,0.5v1.4h-0.5V17h0.6l0.7,1.7L238.2,19.2z"/>
</g>
<g>
	<path fill="#FFFFFF" d="M276.8,57.7c-1.8,0.9-5.5,1.8-10.2,1.8c-10.9,0-19.1-6.9-19.1-19.5c0-12.1,8.2-20.3,20.2-20.3
		c4.8,0,7.9,1,9.2,1.7l-1.2,4.1c-1.9-0.9-4.6-1.6-7.8-1.6c-9.1,0-15.1,5.8-15.1,15.9c0,9.5,5.4,15.5,14.8,15.5c3,0,6.1-0.6,8.1-1.6
		L276.8,57.7z"/>
	<path fill="#FFFFFF" d="M307.3,44.9c0,10.3-7.1,14.7-13.8,14.7c-7.5,0-13.3-5.5-13.3-14.3c0-9.3,6.1-14.7,13.8-14.7
		C302,30.6,307.3,36.4,307.3,44.9z M285.3,45.2c0,6.1,3.5,10.7,8.4,10.7c4.8,0,8.4-4.5,8.4-10.8c0-4.7-2.3-10.7-8.3-10.7
		C287.9,34.4,285.3,39.9,285.3,45.2z"/>
	<path fill="#FFFFFF" d="M313.9,20.9c3-0.5,6.6-0.8,10.6-0.8c7.2,0,12.3,1.7,15.6,4.8c3.4,3.2,5.4,7.6,5.4,13.9
		c0,6.3-1.9,11.5-5.6,15c-3.6,3.6-9.6,5.6-17.1,5.6c-3.6,0-6.5-0.2-9.1-0.5V20.9z M318.9,55c1.3,0.2,3.1,0.3,5,0.3
		c10.7,0,16.4-6,16.4-16.4c0.1-9.1-5.1-14.9-15.6-14.9c-2.6,0-4.5,0.2-5.8,0.5V55z"/>
	<path fill="#FFFFFF" d="M372.1,40.9h-15v13.9h16.7V59h-21.7V20.4h20.9v4.2H357v12.2h15V40.9z"/>
</g>
</svg>
